<mxfile host="app.diagrams.net" modified="2023-08-02T22:39:44.053Z" agent="Mozilla/5.0 (Macintosh; Intel Mac OS X 10_15_7) AppleWebKit/605.1.15 (KHTML, like Gecko) Version/16.5 Safari/605.1.15" etag="vo90x7A5JtmFhPkq5kli" version="21.6.6" type="device">
  <diagram name="Page-1" id="HZfQUniBIj5lP_5DRiw-">
    <mxGraphModel dx="832" dy="648" grid="1" gridSize="10" guides="1" tooltips="1" connect="1" arrows="1" fold="1" page="1" pageScale="1" pageWidth="850" pageHeight="1100" math="1" shadow="0">
      <root>
        <mxCell id="0" />
        <mxCell id="1" parent="0" />
        <mxCell id="qymQ_psq9ALF8zp_D3eY-1" value="" style="rounded=1;whiteSpace=wrap;html=1;fillColor=#f5f5f5;strokeColor=#666666;fontColor=#333333;arcSize=6;" vertex="1" parent="1">
          <mxGeometry x="360" y="190" width="330" height="150" as="geometry" />
        </mxCell>
        <mxCell id="qymQ_psq9ALF8zp_D3eY-2" value="CEGIS" style="text;html=1;strokeColor=none;fillColor=none;align=center;verticalAlign=middle;whiteSpace=wrap;rounded=0;" vertex="1" parent="1">
          <mxGeometry x="620" y="300" width="60" height="30" as="geometry" />
        </mxCell>
        <mxCell id="qymQ_psq9ALF8zp_D3eY-17" style="edgeStyle=orthogonalEdgeStyle;rounded=0;orthogonalLoop=1;jettySize=auto;html=1;exitX=0.25;exitY=0;exitDx=0;exitDy=0;entryX=0.75;entryY=0;entryDx=0;entryDy=0;dashed=1;" edge="1" parent="1" source="qymQ_psq9ALF8zp_D3eY-3" target="qymQ_psq9ALF8zp_D3eY-4">
          <mxGeometry relative="1" as="geometry">
            <Array as="points">
              <mxPoint x="620" y="180" />
              <mxPoint x="548" y="180" />
            </Array>
          </mxGeometry>
        </mxCell>
        <mxCell id="qymQ_psq9ALF8zp_D3eY-3" value="SMT Solver&lt;br&gt;(z3)" style="rounded=1;whiteSpace=wrap;html=1;fillColor=#f8cecc;strokeColor=#b85450;" vertex="1" parent="1">
          <mxGeometry x="600" y="200" width="80" height="40" as="geometry" />
        </mxCell>
        <mxCell id="qymQ_psq9ALF8zp_D3eY-12" style="edgeStyle=orthogonalEdgeStyle;rounded=0;orthogonalLoop=1;jettySize=auto;html=1;exitX=0.5;exitY=1;exitDx=0;exitDy=0;entryX=0.5;entryY=0;entryDx=0;entryDy=0;" edge="1" parent="1" source="qymQ_psq9ALF8zp_D3eY-4" target="qymQ_psq9ALF8zp_D3eY-6">
          <mxGeometry relative="1" as="geometry" />
        </mxCell>
        <mxCell id="qymQ_psq9ALF8zp_D3eY-16" style="edgeStyle=orthogonalEdgeStyle;rounded=0;orthogonalLoop=1;jettySize=auto;html=1;exitX=0.5;exitY=0;exitDx=0;exitDy=0;entryX=0.5;entryY=0;entryDx=0;entryDy=0;dashed=1;" edge="1" parent="1" source="qymQ_psq9ALF8zp_D3eY-4" target="qymQ_psq9ALF8zp_D3eY-3">
          <mxGeometry relative="1" as="geometry">
            <Array as="points">
              <mxPoint x="525" y="170" />
              <mxPoint x="640" y="170" />
            </Array>
          </mxGeometry>
        </mxCell>
        <mxCell id="qymQ_psq9ALF8zp_D3eY-18" style="edgeStyle=orthogonalEdgeStyle;rounded=0;orthogonalLoop=1;jettySize=auto;html=1;exitX=1;exitY=0.5;exitDx=0;exitDy=0;entryX=1;entryY=0.5;entryDx=0;entryDy=0;" edge="1" parent="1" source="qymQ_psq9ALF8zp_D3eY-4" target="qymQ_psq9ALF8zp_D3eY-10">
          <mxGeometry relative="1" as="geometry">
            <Array as="points">
              <mxPoint x="590" y="220" />
              <mxPoint x="590" y="430" />
            </Array>
          </mxGeometry>
        </mxCell>
        <mxCell id="qymQ_psq9ALF8zp_D3eY-4" value="Synthesizer&lt;br&gt;(Rosette)" style="rounded=1;whiteSpace=wrap;html=1;fillColor=#f8cecc;strokeColor=#b85450;" vertex="1" parent="1">
          <mxGeometry x="480" y="200" width="90" height="40" as="geometry" />
        </mxCell>
        <mxCell id="qymQ_psq9ALF8zp_D3eY-37" style="edgeStyle=orthogonalEdgeStyle;rounded=0;orthogonalLoop=1;jettySize=auto;html=1;exitX=1;exitY=0.5;exitDx=0;exitDy=0;entryX=0;entryY=0.5;entryDx=0;entryDy=0;" edge="1" parent="1" source="qymQ_psq9ALF8zp_D3eY-5" target="qymQ_psq9ALF8zp_D3eY-4">
          <mxGeometry relative="1" as="geometry" />
        </mxCell>
        <mxCell id="qymQ_psq9ALF8zp_D3eY-5" value="Grammar&lt;br&gt;generator" style="rounded=1;whiteSpace=wrap;html=1;fillColor=#dae8fc;strokeColor=#6c8ebf;" vertex="1" parent="1">
          <mxGeometry x="370" y="200" width="90" height="40" as="geometry" />
        </mxCell>
        <mxCell id="qymQ_psq9ALF8zp_D3eY-21" style="edgeStyle=orthogonalEdgeStyle;rounded=0;orthogonalLoop=1;jettySize=auto;html=1;exitX=0.5;exitY=1;exitDx=0;exitDy=0;entryX=0.921;entryY=0.016;entryDx=0;entryDy=0;entryPerimeter=0;" edge="1" parent="1" source="qymQ_psq9ALF8zp_D3eY-6" target="qymQ_psq9ALF8zp_D3eY-10">
          <mxGeometry relative="1" as="geometry" />
        </mxCell>
        <mxCell id="qymQ_psq9ALF8zp_D3eY-24" style="edgeStyle=orthogonalEdgeStyle;rounded=0;orthogonalLoop=1;jettySize=auto;html=1;exitX=0;exitY=0.75;exitDx=0;exitDy=0;entryX=1;entryY=0.75;entryDx=0;entryDy=0;dashed=1;" edge="1" parent="1" source="qymQ_psq9ALF8zp_D3eY-6" target="qymQ_psq9ALF8zp_D3eY-9">
          <mxGeometry relative="1" as="geometry" />
        </mxCell>
        <mxCell id="qymQ_psq9ALF8zp_D3eY-6" value="Denormalize" style="rounded=1;whiteSpace=wrap;html=1;fillColor=#d5e8d4;strokeColor=#82b366;" vertex="1" parent="1">
          <mxGeometry x="480" y="290" width="90" height="40" as="geometry" />
        </mxCell>
        <mxCell id="qymQ_psq9ALF8zp_D3eY-28" style="edgeStyle=orthogonalEdgeStyle;rounded=0;orthogonalLoop=1;jettySize=auto;html=1;exitX=0.25;exitY=1;exitDx=0;exitDy=0;entryX=0.75;entryY=0;entryDx=0;entryDy=0;dashed=1;" edge="1" parent="1" source="qymQ_psq9ALF8zp_D3eY-7" target="qymQ_psq9ALF8zp_D3eY-9">
          <mxGeometry relative="1" as="geometry" />
        </mxCell>
        <mxCell id="qymQ_psq9ALF8zp_D3eY-30" style="edgeStyle=orthogonalEdgeStyle;rounded=0;orthogonalLoop=1;jettySize=auto;html=1;exitX=1;exitY=0.5;exitDx=0;exitDy=0;entryX=0;entryY=0.5;entryDx=0;entryDy=0;" edge="1" parent="1" source="qymQ_psq9ALF8zp_D3eY-7" target="qymQ_psq9ALF8zp_D3eY-5">
          <mxGeometry relative="1" as="geometry" />
        </mxCell>
        <mxCell id="qymQ_psq9ALF8zp_D3eY-35" style="edgeStyle=orthogonalEdgeStyle;rounded=0;orthogonalLoop=1;jettySize=auto;html=1;exitX=0.75;exitY=1;exitDx=0;exitDy=0;entryX=0.232;entryY=-0.007;entryDx=0;entryDy=0;entryPerimeter=0;" edge="1" parent="1" source="qymQ_psq9ALF8zp_D3eY-7" target="qymQ_psq9ALF8zp_D3eY-10">
          <mxGeometry relative="1" as="geometry" />
        </mxCell>
        <mxCell id="qymQ_psq9ALF8zp_D3eY-7" value="Rule-based&lt;br&gt;synthesis" style="rounded=1;whiteSpace=wrap;html=1;fillColor=#f5f5f5;fontColor=#333333;strokeColor=#666666;" vertex="1" parent="1">
          <mxGeometry x="240" y="200" width="90" height="40" as="geometry" />
        </mxCell>
        <mxCell id="qymQ_psq9ALF8zp_D3eY-25" style="edgeStyle=orthogonalEdgeStyle;rounded=0;orthogonalLoop=1;jettySize=auto;html=1;exitX=0.25;exitY=1;exitDx=0;exitDy=0;entryX=0.25;entryY=0;entryDx=0;entryDy=0;dashed=1;" edge="1" parent="1" source="qymQ_psq9ALF8zp_D3eY-8" target="qymQ_psq9ALF8zp_D3eY-9">
          <mxGeometry relative="1" as="geometry" />
        </mxCell>
        <mxCell id="qymQ_psq9ALF8zp_D3eY-27" style="edgeStyle=orthogonalEdgeStyle;rounded=0;orthogonalLoop=1;jettySize=auto;html=1;exitX=1;exitY=0.5;exitDx=0;exitDy=0;entryX=0;entryY=0.5;entryDx=0;entryDy=0;" edge="1" parent="1" source="qymQ_psq9ALF8zp_D3eY-8" target="qymQ_psq9ALF8zp_D3eY-7">
          <mxGeometry relative="1" as="geometry" />
        </mxCell>
        <mxCell id="qymQ_psq9ALF8zp_D3eY-31" style="edgeStyle=orthogonalEdgeStyle;rounded=0;orthogonalLoop=1;jettySize=auto;html=1;exitX=1;exitY=0.75;exitDx=0;exitDy=0;entryX=0.25;entryY=1;entryDx=0;entryDy=0;" edge="1" parent="1" source="qymQ_psq9ALF8zp_D3eY-8" target="qymQ_psq9ALF8zp_D3eY-4">
          <mxGeometry relative="1" as="geometry">
            <Array as="points">
              <mxPoint x="220" y="230" />
              <mxPoint x="220" y="280" />
              <mxPoint x="502" y="280" />
            </Array>
          </mxGeometry>
        </mxCell>
        <mxCell id="qymQ_psq9ALF8zp_D3eY-8" value="Invariant&lt;br&gt;inference" style="rounded=1;whiteSpace=wrap;html=1;fillColor=#d5e8d4;strokeColor=#82b366;" vertex="1" parent="1">
          <mxGeometry x="110" y="200" width="90" height="40" as="geometry" />
        </mxCell>
        <mxCell id="qymQ_psq9ALF8zp_D3eY-23" style="edgeStyle=orthogonalEdgeStyle;rounded=0;orthogonalLoop=1;jettySize=auto;html=1;exitX=1;exitY=0.25;exitDx=0;exitDy=0;entryX=0;entryY=0.25;entryDx=0;entryDy=0;dashed=1;" edge="1" parent="1" source="qymQ_psq9ALF8zp_D3eY-9" target="qymQ_psq9ALF8zp_D3eY-6">
          <mxGeometry relative="1" as="geometry" />
        </mxCell>
        <mxCell id="qymQ_psq9ALF8zp_D3eY-26" style="edgeStyle=orthogonalEdgeStyle;rounded=0;orthogonalLoop=1;jettySize=auto;html=1;exitX=0.5;exitY=0;exitDx=0;exitDy=0;entryX=0.5;entryY=1;entryDx=0;entryDy=0;dashed=1;" edge="1" parent="1" source="qymQ_psq9ALF8zp_D3eY-9" target="qymQ_psq9ALF8zp_D3eY-8">
          <mxGeometry relative="1" as="geometry" />
        </mxCell>
        <mxCell id="qymQ_psq9ALF8zp_D3eY-29" style="edgeStyle=orthogonalEdgeStyle;rounded=0;orthogonalLoop=1;jettySize=auto;html=1;exitX=1;exitY=0;exitDx=0;exitDy=0;entryX=0.5;entryY=1;entryDx=0;entryDy=0;dashed=1;" edge="1" parent="1" source="qymQ_psq9ALF8zp_D3eY-9" target="qymQ_psq9ALF8zp_D3eY-7">
          <mxGeometry relative="1" as="geometry">
            <Array as="points">
              <mxPoint x="200" y="270" />
              <mxPoint x="285" y="270" />
            </Array>
          </mxGeometry>
        </mxCell>
        <mxCell id="qymQ_psq9ALF8zp_D3eY-9" value="EQSAT&lt;br&gt;(egg)" style="rounded=1;whiteSpace=wrap;html=1;fillColor=#f8cecc;strokeColor=#b85450;" vertex="1" parent="1">
          <mxGeometry x="110" y="290" width="90" height="40" as="geometry" />
        </mxCell>
        <mxCell id="qymQ_psq9ALF8zp_D3eY-48" style="edgeStyle=orthogonalEdgeStyle;rounded=0;orthogonalLoop=1;jettySize=auto;html=1;exitX=0.5;exitY=1;exitDx=0;exitDy=0;" edge="1" parent="1" source="qymQ_psq9ALF8zp_D3eY-10">
          <mxGeometry relative="1" as="geometry">
            <mxPoint x="392.8275862068965" y="510" as="targetPoint" />
          </mxGeometry>
        </mxCell>
        <mxCell id="qymQ_psq9ALF8zp_D3eY-10" value="Generalized Semi-naive&lt;br&gt;rewriting (GSN)" style="rounded=1;whiteSpace=wrap;html=1;fillColor=#fff2cc;strokeColor=#d6b656;" vertex="1" parent="1">
          <mxGeometry x="235" y="400" width="315" height="60" as="geometry" />
        </mxCell>
        <mxCell id="qymQ_psq9ALF8zp_D3eY-13" value="succeed" style="text;html=1;strokeColor=none;fillColor=none;align=center;verticalAlign=middle;whiteSpace=wrap;rounded=0;" vertex="1" parent="1">
          <mxGeometry x="520" y="240" width="60" height="30" as="geometry" />
        </mxCell>
        <mxCell id="qymQ_psq9ALF8zp_D3eY-14" value="$$G, H \circ G$$" style="text;html=1;strokeColor=none;fillColor=none;align=center;verticalAlign=middle;whiteSpace=wrap;rounded=0;" vertex="1" parent="1">
          <mxGeometry x="520" y="260" width="80" height="40" as="geometry" />
        </mxCell>
        <mxCell id="qymQ_psq9ALF8zp_D3eY-19" value="fail" style="text;html=1;strokeColor=none;fillColor=none;align=center;verticalAlign=middle;whiteSpace=wrap;rounded=0;" vertex="1" parent="1">
          <mxGeometry x="550" y="194" width="60" height="30" as="geometry" />
        </mxCell>
        <mxCell id="qymQ_psq9ALF8zp_D3eY-20" value="$$F, G$$" style="text;html=1;strokeColor=none;fillColor=none;align=center;verticalAlign=middle;whiteSpace=wrap;rounded=0;" vertex="1" parent="1">
          <mxGeometry x="580" y="390" width="60" height="30" as="geometry" />
        </mxCell>
        <mxCell id="qymQ_psq9ALF8zp_D3eY-22" value="$$H$$" style="text;html=1;strokeColor=none;fillColor=none;align=center;verticalAlign=middle;whiteSpace=wrap;rounded=0;" vertex="1" parent="1">
          <mxGeometry x="510" y="360" width="60" height="30" as="geometry" />
        </mxCell>
        <mxCell id="qymQ_psq9ALF8zp_D3eY-32" value="$$\Phi$$" style="text;html=1;strokeColor=none;fillColor=none;align=center;verticalAlign=middle;whiteSpace=wrap;rounded=0;" vertex="1" parent="1">
          <mxGeometry x="189" y="194" width="60" height="30" as="geometry" />
        </mxCell>
        <mxCell id="qymQ_psq9ALF8zp_D3eY-33" value="fail" style="text;html=1;strokeColor=none;fillColor=none;align=center;verticalAlign=middle;whiteSpace=wrap;rounded=0;" vertex="1" parent="1">
          <mxGeometry x="314" y="194" width="60" height="30" as="geometry" />
        </mxCell>
        <mxCell id="qymQ_psq9ALF8zp_D3eY-34" value="succeed" style="text;html=1;strokeColor=none;fillColor=none;align=center;verticalAlign=middle;whiteSpace=wrap;rounded=0;" vertex="1" parent="1">
          <mxGeometry x="302" y="236" width="60" height="30" as="geometry" />
        </mxCell>
        <mxCell id="qymQ_psq9ALF8zp_D3eY-36" value="$$\Sigma$$" style="text;html=1;strokeColor=none;fillColor=none;align=center;verticalAlign=middle;whiteSpace=wrap;rounded=0;" vertex="1" parent="1">
          <mxGeometry x="440" y="194" width="60" height="30" as="geometry" />
        </mxCell>
        <mxCell id="qymQ_psq9ALF8zp_D3eY-39" style="edgeStyle=orthogonalEdgeStyle;rounded=0;orthogonalLoop=1;jettySize=auto;html=1;exitX=0.5;exitY=1;exitDx=0;exitDy=0;entryX=0.5;entryY=0;entryDx=0;entryDy=0;" edge="1" parent="1" source="qymQ_psq9ALF8zp_D3eY-38" target="qymQ_psq9ALF8zp_D3eY-8">
          <mxGeometry relative="1" as="geometry" />
        </mxCell>
        <mxCell id="qymQ_psq9ALF8zp_D3eY-38" value="$$F, G, \Gamma$$" style="text;html=1;strokeColor=none;fillColor=none;align=center;verticalAlign=middle;whiteSpace=wrap;rounded=0;" vertex="1" parent="1">
          <mxGeometry x="125" y="130" width="60" height="30" as="geometry" />
        </mxCell>
        <mxCell id="qymQ_psq9ALF8zp_D3eY-41" style="edgeStyle=orthogonalEdgeStyle;rounded=0;orthogonalLoop=1;jettySize=auto;html=1;exitX=0.5;exitY=1;exitDx=0;exitDy=0;entryX=0.5;entryY=0;entryDx=0;entryDy=0;" edge="1" parent="1" source="qymQ_psq9ALF8zp_D3eY-40" target="qymQ_psq9ALF8zp_D3eY-7">
          <mxGeometry relative="1" as="geometry" />
        </mxCell>
        <mxCell id="qymQ_psq9ALF8zp_D3eY-40" value="$$F, G, \Gamma$$" style="text;html=1;strokeColor=none;fillColor=none;align=center;verticalAlign=middle;whiteSpace=wrap;rounded=0;" vertex="1" parent="1">
          <mxGeometry x="255" y="130" width="60" height="30" as="geometry" />
        </mxCell>
        <mxCell id="qymQ_psq9ALF8zp_D3eY-43" style="edgeStyle=orthogonalEdgeStyle;rounded=0;orthogonalLoop=1;jettySize=auto;html=1;exitX=0.5;exitY=1;exitDx=0;exitDy=0;entryX=0.5;entryY=0;entryDx=0;entryDy=0;" edge="1" parent="1" source="qymQ_psq9ALF8zp_D3eY-42" target="qymQ_psq9ALF8zp_D3eY-5">
          <mxGeometry relative="1" as="geometry" />
        </mxCell>
        <mxCell id="qymQ_psq9ALF8zp_D3eY-42" value="$$F, G$$" style="text;html=1;strokeColor=none;fillColor=none;align=center;verticalAlign=middle;whiteSpace=wrap;rounded=0;" vertex="1" parent="1">
          <mxGeometry x="385" y="130" width="60" height="30" as="geometry" />
        </mxCell>
        <mxCell id="qymQ_psq9ALF8zp_D3eY-45" style="edgeStyle=orthogonalEdgeStyle;rounded=0;orthogonalLoop=1;jettySize=auto;html=1;exitX=0.5;exitY=1;exitDx=0;exitDy=0;entryX=0.25;entryY=0;entryDx=0;entryDy=0;" edge="1" parent="1" source="qymQ_psq9ALF8zp_D3eY-44" target="qymQ_psq9ALF8zp_D3eY-4">
          <mxGeometry relative="1" as="geometry" />
        </mxCell>
        <mxCell id="qymQ_psq9ALF8zp_D3eY-44" value="$$F, G, \Gamma$$" style="text;html=1;strokeColor=none;fillColor=none;align=center;verticalAlign=middle;whiteSpace=wrap;rounded=0;" vertex="1" parent="1">
          <mxGeometry x="472" y="130" width="60" height="30" as="geometry" />
        </mxCell>
        <mxCell id="qymQ_psq9ALF8zp_D3eY-46" value="$$\Phi$$" style="text;html=1;strokeColor=none;fillColor=none;align=center;verticalAlign=middle;whiteSpace=wrap;rounded=0;" vertex="1" parent="1">
          <mxGeometry x="460" y="250" width="60" height="30" as="geometry" />
        </mxCell>
        <mxCell id="qymQ_psq9ALF8zp_D3eY-47" value="$$H$$" style="text;html=1;strokeColor=none;fillColor=none;align=center;verticalAlign=middle;whiteSpace=wrap;rounded=0;" vertex="1" parent="1">
          <mxGeometry x="290" y="360" width="60" height="30" as="geometry" />
        </mxCell>
        <mxCell id="qymQ_psq9ALF8zp_D3eY-49" value="$$ \text{Input: unoptimized program } \Pi_1(F, G) \text{ constraint } \Gamma$$" style="text;html=1;strokeColor=none;fillColor=none;align=center;verticalAlign=middle;whiteSpace=wrap;rounded=0;" vertex="1" parent="1">
          <mxGeometry x="40" y="100" width="570" height="30" as="geometry" />
        </mxCell>
        <mxCell id="qymQ_psq9ALF8zp_D3eY-50" value="$$ \text{Output: optimized program } \Pi_2 $$" style="text;html=1;strokeColor=none;fillColor=none;align=center;verticalAlign=middle;whiteSpace=wrap;rounded=0;" vertex="1" parent="1">
          <mxGeometry x="392" y="470" width="237" height="30" as="geometry" />
        </mxCell>
      </root>
    </mxGraphModel>
  </diagram>
</mxfile>
